{"title":"The.Crocodile.Hunter.S03.720p.HDTV.AC3.x264-NTb","uid":10666258,"size":19877789924,"categoryP":"video","categoryS":"hd___tv_shows","magnet":"?xt=urn:btih:a37cc7c4119d194fe1f9767454d0f38ac744db45&amp;dn=The.Crocodile.Hunter.S03.720p.HDTV.AC3.x264-NTb&amp;tr=udp%3A%2F%2Ftracker.openbittorrent.com%3A80&amp;tr=udp%3A%2F%2Fopen.demonii.com%3A1337&amp;tr=udp%3A%2F%2Ftracker.coppersurfer.tk%3A6969&amp;tr=udp%3A%2F%2Fexodus.desync.com%3A6969","seeders":3,"leechers":4,"uploader":"horrorhound","files":14,"time":1406803162,"description":"Steve and wife Terri educate and entertain on the subject of Australia's all too often dangerous wildlife.\n\n\n\nStars:\nSteve Irwin, Terri Irwin, Sui the Dog\n\n\n\nMediaInfo:\nFormat                                   : Matroska\nFormat version                           : Version 2\nFile size                                : 1.20 GiB\nDuration                                 : 42mn 15s\nOverall bit rate                         : 4 077 Kbps\nEncoded date                             : UTC 2014-07-20 07:35:23\nWriting application                      : mkvmerge v6.5.0 ('Isn't she lovely') built on Oct 20 2013 12:50:05\nWriting library                          : libebml v1.3.0 + libmatroska v1.4.1\n\nVideo\nID                                       : 1\nFormat                                   : AVC\nFormat/Info                              : Advanced Video Codec\nFormat profile                           : &lt;a class=&quot;__cf_email__&quot; href=&quot;/cdn-cgi/l/email-protection&quot; data-cfemail=&quot;ca82a3ada28a86fee4fb&quot;&gt;[email&amp;#160;protected]&lt;/a&gt;&lt;script cf-hash='f9e31' type=&quot;text/javascript&quot;&gt;\n/* &lt;![CDATA[ */!function(){try{var t=&quot;currentScript&quot;in document?document.currentScript:function(){for(var t=document.getElementsByTagName(&quot;script&quot;),e=t.length;e--;)if(t[e].getAttribute(&quot;cf-hash&quot;))return t[e]}();if(t&amp;&amp;t.previousSibling){var e,r,n,i,c=t.previousSibling,a=c.getAttribute(&quot;data-cfemail&quot;);if(a){for(e=&quot;&quot;,r=parseInt(a.substr(0,2),16),n=2;a.length-n;n+=2)i=parseInt(a.substr(n,2),16)^r,e+=String.fromCharCode(i);e=document.createTextNode(e),c.parentNode.replaceChild(e,c)}}}catch(u){}}();/* ]]&gt; */&lt;/script&gt;\nFormat settings, CABAC                   : Yes\nFormat settings, ReFrames                : 9 frames\nCodec ID                                 : V_MPEG4/ISO/AVC\nDuration                                 : 42mn 15s\nBit rate                                 : 3 612 Kbps\nWidth                                    : 1 280 pixels\nHeight                                   : 720 pixels\nDisplay aspect ratio                     : 16:9\nFrame rate mode                          : Constant\nFrame rate                               : 29.970 fps\nColor space                              : YUV\nChroma subsampling                       : 4:2:0\nBit depth                                : 8 bits\nScan type                                : Progressive\nBits/(Pixel*Frame)                       : 0.131\nStream size                              : 1.07 GiB (89%)\nWriting library                          : x264 core 138 r2358 9e941d1\nEncoding settings                        : cabac=1 / ref=9 / deblock=1:-2:-1 / analyse=0x3:0x113 / me=umh / subme=7 / psy=1 / psy_rd=1.00:0.00 / mixed_ref=1 / me_range=32 / chroma_me=1 / trellis=2 / 8x8dct=1 / cqm=0 / deadzone=21,11 / fast_pskip=0 / chroma_qp_offset=-2 / threads=24 / lookahead_threads=5 / sliced_threads=0 / nr=0 / decimate=0 / interlaced=0 / bluray_compat=0 / constrained_intra=0 / bframes=7 / b_pyramid=2 / b_adapt=2 / b_bias=0 / direct=3 / weightb=1 / open_gop=0 / weightp=2 / keyint=300 / keyint_min=27 / scenecut=40 / intra_refresh=0 / rc_lookahead=250 / rc=crf / mbtree=1 / crf=20.0 / qcomp=0.60 / qpmin=10 / qpmax=51 / qpstep=4 / vbv_maxrate=62500 / vbv_bufsize=78125 / crf_max=0.0 / nal_hrd=none / ip_ratio=1.40 / aq=1:0.90\nDefault                                  : Yes\nForced                                   : No\n\nAudio\nID                                       : 2\nFormat                                   : AC-3\nFormat/Info                              : Audio Coding 3\nMode extension                           : CM (complete main)\nFormat settings, Endianness              : Big\nCodec ID                                 : A_AC3\nDuration                                 : 42mn 15s\nBit rate mode                            : Constant\nBit rate                                 : 384 Kbps\nChannel(s)                               : 6 channels\nChannel positions                        : Front: L C R, Side: L R, LFE\nSampling rate                            : 48.0 KHz\nBit depth                                : 16 bits\nCompression mode                         : Lossy\nDelay relative to video                  : 44ms\nStream size                              : 116 MiB (9%)\nLanguage                                 : English\nDefault                                  : Yes\nForced                                   : No\n\n","torrent":{"xt":"urn:btih:a37cc7c4119d194fe1f9767454d0f38ac744db45","amp;dn":"The.Crocodile.Hunter.S03.720p.HDTV.AC3.x264-NTb","amp;tr":["udp%3A%2F%2Ftracker.openbittorrent.com%3A80","udp%3A%2F%2Fopen.demonii.com%3A1337","udp%3A%2F%2Ftracker.coppersurfer.tk%3A6969","udp%3A%2F%2Fexodus.desync.com%3A6969"],"infoHash":"a37cc7c4119d194fe1f9767454d0f38ac744db45","infoHashBuffer":{"type":"Buffer","data":[163,124,199,196,17,157,25,79,225,249,118,116,84,208,243,138,199,68,219,69]},"announce":[],"urlList":[]}}